<svg width="357" height="81" viewBox="0 0 357 81" fill="none" xmlns="http://www.w3.org/2000/svg">
<path d="M146.835 34.8125H139.369C139.233 33.8466 138.955 32.9886 138.534 32.2386C138.114 31.4773 137.574 30.8295 136.915 30.2955C136.256 29.7614 135.494 29.3523 134.631 29.0682C133.778 28.7841 132.852 28.642 131.852 28.642C130.045 28.642 128.472 29.0909 127.131 29.9886C125.79 30.875 124.75 32.1705 124.011 33.875C123.273 35.5682 122.903 37.625 122.903 40.0455C122.903 42.5341 123.273 44.625 124.011 46.3182C124.761 48.0114 125.807 49.2898 127.148 50.1534C128.489 51.017 130.04 51.4489 131.801 51.4489C132.79 51.4489 133.705 51.3182 134.545 51.0568C135.398 50.7955 136.153 50.4148 136.812 49.9148C137.472 49.4034 138.017 48.7841 138.449 48.0568C138.892 47.3295 139.199 46.5 139.369 45.5682L146.835 45.6023C146.642 47.2045 146.159 48.75 145.386 50.2386C144.625 51.7159 143.597 53.0398 142.301 54.2102C141.017 55.3693 139.483 56.2898 137.699 56.9716C135.926 57.642 133.92 57.9773 131.682 57.9773C128.568 57.9773 125.784 57.2727 123.33 55.8636C120.886 54.4545 118.955 52.4148 117.534 49.7443C116.125 47.0739 115.42 43.8409 115.42 40.0455C115.42 36.2386 116.136 33 117.568 30.3295C119 27.6591 120.943 25.625 123.398 24.2273C125.852 22.8182 128.614 22.1136 131.682 22.1136C133.705 22.1136 135.58 22.3977 137.307 22.9659C139.045 23.5341 140.585 24.3636 141.926 25.4545C143.267 26.5341 144.358 27.858 145.199 29.4261C146.051 30.9943 146.597 32.7898 146.835 34.8125ZM151.991 57.5V31.3182H159.031V35.8864H159.304C159.781 34.2614 160.582 33.0341 161.707 32.2045C162.832 31.3636 164.128 30.9432 165.594 30.9432C165.957 30.9432 166.349 30.9659 166.77 31.0114C167.19 31.0568 167.56 31.1193 167.878 31.1989V37.642C167.537 37.5398 167.065 37.4489 166.463 37.3693C165.861 37.2898 165.31 37.25 164.81 37.25C163.741 37.25 162.787 37.483 161.946 37.9489C161.116 38.4034 160.457 39.0398 159.969 39.858C159.491 40.6761 159.253 41.6193 159.253 42.6875V57.5H151.991ZM171.632 57.5V31.3182H178.893V57.5H171.632ZM175.28 27.9432C174.2 27.9432 173.274 27.5852 172.501 26.8693C171.74 26.142 171.359 25.2727 171.359 24.2614C171.359 23.2614 171.74 22.4034 172.501 21.6875C173.274 20.9602 174.2 20.5966 175.28 20.5966C176.359 20.5966 177.28 20.9602 178.041 21.6875C178.814 22.4034 179.2 23.2614 179.2 24.2614C179.2 25.2727 178.814 26.142 178.041 26.8693C177.28 27.5852 176.359 27.9432 175.28 27.9432ZM184.71 67.3182V31.3182H191.869V35.7159H192.193C192.511 35.0114 192.972 34.2955 193.574 33.5682C194.188 32.8295 194.983 32.2159 195.96 31.7273C196.949 31.2273 198.176 30.9773 199.642 30.9773C201.551 30.9773 203.313 31.4773 204.926 32.4773C206.54 33.4659 207.83 34.9602 208.795 36.9602C209.761 38.9489 210.244 41.4432 210.244 44.4432C210.244 47.3636 209.773 49.8295 208.83 51.8409C207.898 53.8409 206.625 55.358 205.011 56.392C203.409 57.4148 201.614 57.9261 199.625 57.9261C198.216 57.9261 197.017 57.6932 196.028 57.2273C195.051 56.7614 194.25 56.1761 193.625 55.4716C193 54.7557 192.523 54.0341 192.193 53.3068H191.972V67.3182H184.71ZM191.818 44.4091C191.818 45.9659 192.034 47.3239 192.466 48.483C192.898 49.642 193.523 50.5455 194.341 51.1932C195.159 51.8295 196.153 52.1477 197.324 52.1477C198.506 52.1477 199.506 51.8239 200.324 51.1761C201.142 50.517 201.761 49.608 202.182 48.4489C202.614 47.2784 202.83 45.9318 202.83 44.4091C202.83 42.8977 202.619 41.5682 202.199 40.4205C201.778 39.2727 201.159 38.375 200.341 37.7273C199.523 37.0795 198.517 36.7557 197.324 36.7557C196.142 36.7557 195.142 37.0682 194.324 37.6932C193.517 38.3182 192.898 39.2045 192.466 40.3523C192.034 41.5 191.818 42.8523 191.818 44.4091ZM229.011 31.3182V36.7727H213.244V31.3182H229.011ZM216.824 25.0455H224.085V49.4545C224.085 50.125 224.188 50.6477 224.392 51.0227C224.597 51.3864 224.881 51.642 225.244 51.7898C225.619 51.9375 226.051 52.0114 226.54 52.0114C226.881 52.0114 227.222 51.983 227.562 51.9261C227.903 51.858 228.165 51.8068 228.347 51.7727L229.489 57.1761C229.125 57.2898 228.614 57.4205 227.955 57.5682C227.295 57.7273 226.494 57.8239 225.551 57.858C223.801 57.9261 222.267 57.6932 220.949 57.1591C219.642 56.625 218.625 55.7955 217.898 54.6705C217.17 53.5455 216.813 52.125 216.824 50.4091V25.0455ZM245.29 58.0114C242.642 58.0114 240.352 57.4489 238.42 56.3239C236.5 55.1875 235.017 53.608 233.972 51.5852C232.926 49.5511 232.403 47.1932 232.403 44.5114C232.403 41.8068 232.926 39.4432 233.972 37.4205C235.017 35.3864 236.5 33.8068 238.42 32.6818C240.352 31.5455 242.642 30.9773 245.29 30.9773C247.938 30.9773 250.222 31.5455 252.142 32.6818C254.074 33.8068 255.562 35.3864 256.608 37.4205C257.653 39.4432 258.176 41.8068 258.176 44.5114C258.176 47.1932 257.653 49.5511 256.608 51.5852C255.562 53.608 254.074 55.1875 252.142 56.3239C250.222 57.4489 247.938 58.0114 245.29 58.0114ZM245.324 52.3864C246.528 52.3864 247.534 52.0455 248.341 51.3636C249.148 50.6705 249.756 49.7273 250.165 48.5341C250.585 47.3409 250.795 45.983 250.795 44.4602C250.795 42.9375 250.585 41.5795 250.165 40.3864C249.756 39.1932 249.148 38.25 248.341 37.5568C247.534 36.8636 246.528 36.517 245.324 36.517C244.108 36.517 243.085 36.8636 242.256 37.5568C241.438 38.25 240.818 39.1932 240.398 40.3864C239.989 41.5795 239.784 42.9375 239.784 44.4602C239.784 45.983 239.989 47.3409 240.398 48.5341C240.818 49.7273 241.438 50.6705 242.256 51.3636C243.085 52.0455 244.108 52.3864 245.324 52.3864ZM287.865 58.0455C285.683 58.0455 283.757 57.4943 282.087 56.392C280.416 55.2784 279.109 53.7102 278.166 51.6875C277.223 49.6534 276.751 47.25 276.751 44.4773C276.751 41.7273 277.223 39.3409 278.166 37.3182C279.109 35.2955 280.422 33.733 282.104 32.6307C283.786 31.5284 285.729 30.9773 287.933 30.9773C289.638 30.9773 290.984 31.2614 291.973 31.8295C292.973 32.3864 293.734 33.0227 294.257 33.7386C294.791 34.4432 295.206 35.0227 295.501 35.4773H295.842V22.5909H299.865V57.5H295.979V53.4773H295.501C295.206 53.9545 294.786 54.5568 294.24 55.2841C293.695 56 292.916 56.642 291.905 57.2102C290.893 57.767 289.547 58.0455 287.865 58.0455ZM288.411 54.4318C290.024 54.4318 291.388 54.0114 292.501 53.1705C293.615 52.3182 294.462 51.142 295.041 49.642C295.621 48.1307 295.911 46.3864 295.911 44.4091C295.911 42.4545 295.626 40.7443 295.058 39.2784C294.49 37.8011 293.649 36.6534 292.536 35.8352C291.422 35.0057 290.047 34.5909 288.411 34.5909C286.706 34.5909 285.286 35.0284 284.149 35.9034C283.024 36.767 282.178 37.9432 281.609 39.4318C281.053 40.9091 280.774 42.5682 280.774 44.4091C280.774 46.2727 281.058 47.9659 281.626 49.4886C282.206 51 283.058 52.2045 284.183 53.1023C285.32 53.9886 286.729 54.4318 288.411 54.4318ZM318.768 58.0455C316.246 58.0455 314.07 57.4886 312.24 56.375C310.422 55.25 309.018 53.6818 308.03 51.6705C307.053 49.6477 306.564 47.2955 306.564 44.6136C306.564 41.9318 307.053 39.5682 308.03 37.5227C309.018 35.4659 310.393 33.8636 312.155 32.7159C313.928 31.5568 315.996 30.9773 318.359 30.9773C319.723 30.9773 321.07 31.2045 322.399 31.6591C323.729 32.1136 324.939 32.8523 326.03 33.875C327.121 34.8864 327.99 36.2273 328.638 37.8977C329.286 39.5682 329.609 41.625 329.609 44.0682V45.7727H309.428V42.2955H325.518C325.518 40.8182 325.223 39.5 324.632 38.3409C324.053 37.1818 323.223 36.267 322.143 35.5966C321.075 34.9261 319.814 34.5909 318.359 34.5909C316.757 34.5909 315.371 34.9886 314.2 35.7841C313.041 36.5682 312.149 37.5909 311.524 38.8523C310.899 40.1136 310.587 41.4659 310.587 42.9091V45.2273C310.587 47.2045 310.928 48.8807 311.609 50.2557C312.303 51.6193 313.263 52.6591 314.49 53.375C315.717 54.0795 317.143 54.4318 318.768 54.4318C319.825 54.4318 320.78 54.2841 321.632 53.9886C322.496 53.6818 323.24 53.2273 323.865 52.625C324.49 52.0114 324.973 51.25 325.314 50.3409L329.2 51.4318C328.791 52.75 328.104 53.9091 327.138 54.9091C326.172 55.8977 324.979 56.6705 323.558 57.2273C322.138 57.7727 320.541 58.0455 318.768 58.0455ZM356.341 31.3182L346.659 57.5H342.568L332.886 31.3182H337.25L344.477 52.1818H344.75L351.977 31.3182H356.341Z" fill="white"/>
<path d="M267.142 57.9432C266.017 57.9432 265.051 57.5455 264.244 56.75C263.449 55.9432 263.051 54.9773 263.051 53.8523C263.051 52.7386 263.449 51.7841 264.244 50.9886C265.051 50.1932 266.017 49.7955 267.142 49.7955C268.233 49.7955 269.188 50.1932 270.006 50.9886C270.824 51.7841 271.233 52.7386 271.233 53.8523C271.233 54.6023 271.04 55.2898 270.653 55.9148C270.278 56.5284 269.784 57.0227 269.17 57.3977C268.557 57.7614 267.881 57.9432 267.142 57.9432Z" fill="#FFD23F"/>
<path d="M0 5C0 2.23862 2.26435 0 5.05747 0H49.9425C52.7357 0 55 2.23862 55 5V25H32.2414C29.4483 25 27.1839 27.2386 27.1839 30V50H5.05747C2.26435 50 0 47.7614 0 45V5Z" fill="white"/>
<path d="M34 34.75C34 32.6789 35.6982 31 37.7931 31H85.2069C87.3018 31 89 32.6789 89 34.75V77.25C89 79.3211 87.3018 81 85.2069 81H37.7931C35.6982 81 34 79.3211 34 77.25V34.75Z" fill="#FFD23F"/>
<path d="M67.1113 55.2894C67.8597 54.5688 68.3854 53.6483 68.6258 52.6375C68.8663 51.6267 68.8113 50.5681 68.4675 49.5877C68.1236 48.6072 67.5054 47.7462 66.6864 47.1069C65.8673 46.4677 64.8818 46.0771 63.8472 45.9818V43.9861C63.8472 43.7246 63.7433 43.4738 63.5584 43.2888C63.3735 43.1039 63.1227 43 62.8611 43C62.5996 43 62.3488 43.1039 62.1638 43.2888C61.9789 43.4738 61.875 43.7246 61.875 43.9861V45.9583H59.9028V43.9861C59.9028 43.7246 59.7989 43.4738 59.614 43.2888C59.429 43.1039 59.1782 43 58.9167 43C58.6551 43 58.4043 43.1039 58.2194 43.2888C58.0345 43.4738 57.9306 43.7246 57.9306 43.9861V45.9583H53.9861C53.7246 45.9583 53.4738 46.0622 53.2888 46.2472C53.1039 46.4321 53 46.6829 53 46.9444C53 47.206 53.1039 47.4568 53.2888 47.6417C53.4738 47.8267 53.7246 47.9306 53.9861 47.9306H54.9722V64.6945H53.9861C53.7246 64.6945 53.4738 64.7984 53.2888 64.9833C53.1039 65.1682 53 65.419 53 65.6806C53 65.9421 53.1039 66.1929 53.2888 66.3779C53.4738 66.5628 53.7246 66.6667 53.9861 66.6667H57.9306V68.6389C57.9306 68.9005 58.0345 69.1513 58.2194 69.3362C58.4043 69.5211 58.6551 69.625 58.9167 69.625C59.1782 69.625 59.429 69.5211 59.614 69.3362C59.7989 69.1513 59.9028 68.9005 59.9028 68.6389V66.6667H61.875V68.6389C61.875 68.9005 61.9789 69.1513 62.1638 69.3362C62.3488 69.5211 62.5996 69.625 62.8611 69.625C63.1227 69.625 63.3735 69.5211 63.5584 69.3362C63.7433 69.1513 63.8472 68.9005 63.8472 68.6389V66.6667H64.8333C66.2009 66.6667 67.5263 66.1929 68.584 65.326C69.6417 64.4591 70.3664 63.2526 70.6349 61.9116C70.9034 60.5706 70.699 59.178 70.0566 57.9707C69.4142 56.7634 68.3734 55.8159 67.1113 55.2894ZM66.8056 51.382C66.8056 52.2973 66.4419 53.1752 65.7947 53.8225C65.1474 54.4697 64.2695 54.8333 63.3542 54.8333H56.9444V47.9306H63.3542C64.2695 47.9306 65.1474 48.2942 65.7947 48.9415C66.4419 49.5887 66.8056 50.4666 66.8056 51.382ZM64.8333 64.6945H56.9444V56.8056H64.8333C65.8795 56.8056 66.8828 57.2211 67.6225 57.9609C68.3622 58.7006 68.7778 59.7039 68.7778 60.75C68.7778 61.7962 68.3622 62.7994 67.6225 63.5392C66.8828 64.2789 65.8795 64.6945 64.8333 64.6945Z" fill="black"/>
</svg>
